<?xml version="1.0" standalone="no"?>
<!DOCTYPE svg PUBLIC "-//W3C//DTD SVG 20010904//EN"
 "http://www.w3.org/TR/2001/REC-SVG-20010904/DTD/svg10.dtd">
<svg version="1.0" xmlns="http://www.w3.org/2000/svg"
 width="300.000000pt" height="300.000000pt" viewBox="0 0 300.000000 300.000000"
 preserveAspectRatio="xMidYMid meet">
<metadata>
Created by potrace 1.11, written by Peter Selinger 2001-2013
</metadata>
<g transform="translate(0.000000,300.000000) scale(0.100000,-0.100000)"
fill="#000000" stroke="none">
<path d="M1379 2996 c-2 -2 -29 -6 -59 -10 -75 -8 -122 -16 -140 -22 -8 -3
-26 -8 -40 -11 -46 -8 -199 -63 -267 -95 -173 -82 -326 -191 -454 -325 -81
-85 -199 -240 -199 -261 0 -6 -4 -12 -9 -14 -7 -2 -62 -100 -66 -118 -1 -3
-12 -27 -24 -55 -26 -56 -70 -187 -76 -225 -2 -14 -8 -39 -14 -57 -5 -17 -7
-34 -4 -37 3 -2 1 -11 -3 -18 -5 -7 -10 -33 -13 -58 -7 -59 -5 -356 2 -397 44
-255 113 -433 243 -628 70 -105 92 -132 195 -234 84 -83 234 -201 258 -201 6
0 11 -4 11 -9 0 -5 8 -11 18 -15 9 -3 35 -16 57 -29 22 -12 76 -38 120 -56 44
-19 89 -38 100 -42 24 -11 215 -56 270 -65 110 -16 398 -10 500 11 102 21 160
37 172 46 7 7 13 9 13 6 0 -8 176 66 236 99 345 189 596 489 717 854 52 156
71 280 72 455 0 132 -9 267 -19 284 -2 3 -7 22 -10 41 -30 187 -157 452 -301
630 -158 194 -350 340 -587 444 -85 38 -243 82 -320 91 -21 2 -43 7 -49 11
-11 7 -323 17 -330 10z"/>
</g>
</svg>
